<svg width="34" height="41" viewBox="0 0 34 41" fill="none" xmlns="http://www.w3.org/2000/svg">
<path opacity="0.8" d="M0 40.88V34.244C0 32.564 0.200667 31.0847 0.602 29.806C1.01267 28.5273 1.56333 27.4073 2.254 26.446C2.954 25.4847 3.75667 24.6587 4.662 23.968C5.57667 23.2773 6.538 22.68 7.546 22.176C8.56333 21.672 9.59467 21.2427 10.64 20.888C11.6853 20.524 12.684 20.1927 13.636 19.894L14.77 19.544C15.806 19.2173 16.7907 18.8907 17.724 18.564C18.6573 18.2373 19.474 17.8593 20.174 17.43C20.8833 17.0007 21.4433 16.4967 21.854 15.918C22.274 15.3393 22.484 14.6393 22.484 13.818C22.484 13.202 22.358 12.642 22.106 12.138C21.8633 11.634 21.504 11.2047 21.028 10.85C20.5613 10.486 19.992 10.206 19.32 10.01C18.648 9.814 17.892 9.716 17.052 9.716C15.1573 9.716 13.748 10.2247 12.824 11.242C11.9 12.25 11.438 13.7947 11.438 15.876V16.702H0.182V15.778C0.182 13.3513 0.583333 11.1627 1.386 9.212C2.18867 7.26133 3.33667 5.60467 4.83 4.242C6.33267 2.87933 8.15267 1.834 10.29 1.106C12.4367 0.368667 14.8447 0 17.514 0C20.034 0 22.2973 0.326666 24.304 0.979999C26.3107 1.63333 28.014 2.57133 29.414 3.794C30.814 5.01667 31.8827 6.496 32.62 8.232C33.3667 9.968 33.74 11.9233 33.74 14.098C33.74 15.7687 33.53 17.2293 33.11 18.48C32.69 19.7307 32.1253 20.8133 31.416 21.728C30.716 22.6427 29.904 23.4173 28.98 24.052C28.0653 24.6867 27.104 25.2233 26.096 25.662C25.0973 26.0913 24.0847 26.4507 23.058 26.74C22.0407 27.0293 21.084 27.286 20.188 27.51L18.284 27.986C17.584 28.1633 16.8887 28.35 16.198 28.546C15.5073 28.742 14.8633 28.9707 14.266 29.232C13.6687 29.484 13.1413 29.7873 12.684 30.142C12.2267 30.4873 11.8813 30.9027 11.648 31.388H33.614V40.88H0Z" fill="#277357"/>
</svg>
