<svg width="36" height="42" viewBox="0 0 36 42" fill="none" xmlns="http://www.w3.org/2000/svg">
<path opacity="0.8" d="M0 14.364C0 12.0493 0.373333 10.0007 1.12 8.218C1.876 6.43533 2.982 4.93733 4.438 3.724C5.894 2.50133 7.686 1.57733 9.814 0.951998C11.942 0.317333 14.3827 0 17.136 0C19.6933 0 22.0127 0.266 24.094 0.797999C26.1753 1.32067 27.9533 2.072 29.428 3.052C30.912 4.02267 32.0553 5.194 32.858 6.566C33.67 7.938 34.076 9.464 34.076 11.144C34.076 12.3667 33.8613 13.5007 33.432 14.546C33.012 15.5913 32.4193 16.5107 31.654 17.304C30.898 18.088 29.988 18.732 28.924 19.236C27.8693 19.7307 26.7027 20.0433 25.424 20.174C27.076 20.2673 28.5553 20.552 29.862 21.028C31.178 21.504 32.2887 22.1433 33.194 22.946C34.1087 23.7487 34.804 24.71 35.28 25.83C35.7653 26.95 36.008 28.2007 36.008 29.582C36.008 31.4207 35.5787 33.0867 34.72 34.58C33.8707 36.0733 32.662 37.352 31.094 38.416C29.526 39.4707 27.6313 40.2873 25.41 40.866C23.198 41.4353 20.7247 41.72 17.99 41.72C15.0967 41.72 12.53 41.3933 10.29 40.74C8.05933 40.0773 6.17867 39.1113 4.648 37.842C3.12667 36.5633 1.96933 34.986 1.176 33.11C0.392 31.2247 0 29.064 0 26.628V26.558H11.256V26.978C11.256 27.7433 11.4147 28.434 11.732 29.05C12.0493 29.666 12.4973 30.1933 13.076 30.632C13.664 31.0707 14.3687 31.4113 15.19 31.654C16.0207 31.8873 16.9447 32.004 17.962 32.004C18.942 32.004 19.8427 31.8967 20.664 31.682C21.4947 31.458 22.2087 31.15 22.806 30.758C23.4033 30.366 23.87 29.904 24.206 29.372C24.542 28.8307 24.71 28.238 24.71 27.594C24.71 26.6607 24.3133 25.984 23.52 25.564C22.736 25.144 21.476 24.934 19.74 24.934H12.516V16.17H19.124C21.7 16.17 22.988 15.3253 22.988 13.636C22.988 13.0573 22.8387 12.53 22.54 12.054C22.2507 11.5687 21.84 11.1533 21.308 10.808C20.7853 10.4627 20.1553 10.1967 19.418 10.01C18.69 9.814 17.8827 9.716 16.996 9.716C16.1 9.716 15.2973 9.81867 14.588 10.024C13.8787 10.22 13.2767 10.5047 12.782 10.878C12.2873 11.2513 11.9093 11.7087 11.648 12.25C11.3867 12.7913 11.256 13.4027 11.256 14.084V14.434H0V14.364Z" fill="#277357"/>
</svg>
