<svg width="36" height="41" viewBox="0 0 36 41" fill="none" xmlns="http://www.w3.org/2000/svg">
<path opacity="0.8" d="M35.364 25.872C35.364 28.1773 34.9487 30.2587 34.118 32.116C33.2873 33.964 32.0973 35.5367 30.548 36.834C29.008 38.1313 27.1367 39.13 24.934 39.83C22.7313 40.5207 20.2533 40.866 17.5 40.866C15.7453 40.866 14.0933 40.7213 12.544 40.432C10.9947 40.152 9.57133 39.746 8.274 39.214C6.97667 38.6727 5.81467 38.0147 4.788 37.24C3.77067 36.4653 2.90733 35.588 2.198 34.608C1.48867 33.6187 0.942667 32.5407 0.56 31.374C0.186667 30.198 0 28.9427 0 27.608V27.286H11.69V27.538C11.69 28.042 11.8347 28.5133 12.124 28.952C12.4227 29.3813 12.824 29.7593 13.328 30.086C13.8413 30.4033 14.4433 30.6553 15.134 30.842C15.8247 31.0287 16.5667 31.122 17.36 31.122C18.256 31.122 19.0773 31.0007 19.824 30.758C20.5707 30.5153 21.21 30.1747 21.742 29.736C22.2833 29.2973 22.6987 28.7747 22.988 28.168C23.2867 27.552 23.436 26.8753 23.436 26.138C23.436 25.4287 23.3007 24.7847 23.03 24.206C22.7593 23.6273 22.372 23.1327 21.868 22.722C21.364 22.302 20.7527 21.98 20.034 21.756C19.3247 21.5227 18.5267 21.406 17.64 21.406C16.9773 21.406 16.338 21.476 15.722 21.616C15.1153 21.7467 14.5553 21.9333 14.042 22.176C13.538 22.4093 13.09 22.694 12.698 23.03C12.3153 23.366 12.0167 23.7347 11.802 24.136H0.322V0H32.718V9.604H11.802V21.294C12.1007 20.1553 12.5673 19.1193 13.202 18.186C13.846 17.2527 14.644 16.4547 15.596 15.792C16.5573 15.1293 17.6727 14.6207 18.942 14.266C20.2113 13.902 21.616 13.72 23.156 13.72C25.116 13.72 26.852 14.0093 28.364 14.588C29.8853 15.1667 31.164 15.988 32.2 17.052C33.236 18.1067 34.02 19.3807 34.552 20.874C35.0933 22.3673 35.364 24.0333 35.364 25.872Z" fill="#277357"/>
</svg>
