<svg width="32" height="32" viewBox="0 0 32 32" fill="none" xmlns="http://www.w3.org/2000/svg">
<path d="M7.08841 25.9179C7.89951 24.0069 9.79325 22.6667 12 22.6667H20C22.2068 22.6667 24.1005 24.0069 24.9116 25.9179M21.3334 12.6667C21.3334 15.6122 18.9455 18 16 18C13.0545 18 10.6667 15.6122 10.6667 12.6667C10.6667 9.72114 13.0545 7.33332 16 7.33332C18.9455 7.33332 21.3334 9.72114 21.3334 12.6667ZM29.3334 16C29.3334 23.3638 23.3638 29.3333 16 29.3333C8.63622 29.3333 2.66669 23.3638 2.66669 16C2.66669 8.63619 8.63622 2.66666 16 2.66666C23.3638 2.66666 29.3334 8.63619 29.3334 16Z" stroke="#F1F1F1" stroke-width="2" stroke-linecap="round" stroke-linejoin="round"/>
</svg>
